<?xml version="1.0" encoding="UTF-8" standalone="no"?>
<!-- Created with Inkscape (http://www.inkscape.org/) -->

<svg
   xmlns:dc="http://purl.org/dc/elements/1.1/"
   xmlns:cc="http://creativecommons.org/ns#"
   xmlns:rdf="http://www.w3.org/1999/02/22-rdf-syntax-ns#"
   xmlns:svg="http://www.w3.org/2000/svg"
   xmlns="http://www.w3.org/2000/svg"
   xmlns:sodipodi="http://sodipodi.sourceforge.net/DTD/sodipodi-0.dtd"
   xmlns:inkscape="http://www.inkscape.org/namespaces/inkscape"
   width="48px"
   height="48px"
   viewBox="0 0 48 48"
   version="1.1"
   id="SVGRoot"
   inkscape:version="0.92.1 r"
   sodipodi:docname="icon.svg">
  <sodipodi:namedview
     id="base"
     pagecolor="#ffffff"
     bordercolor="#666666"
     borderopacity="1.0"
     inkscape:pageopacity="0.0"
     inkscape:pageshadow="2"
     inkscape:zoom="15.084945"
     inkscape:cx="15.486117"
     inkscape:cy="23.301153"
     inkscape:document-units="px"
     inkscape:current-layer="layer2"
     showgrid="false"
     inkscape:window-width="1920"
     inkscape:window-height="1018"
     inkscape:window-x="0"
     inkscape:window-y="25"
     inkscape:window-maximized="1"
     inkscape:grid-bbox="true"
     inkscape:snap-page="false" />
  <defs
     id="defs3688">
    <inkscape:perspective
       sodipodi:type="inkscape:persp3d"
       inkscape:vp_x="2.1819353 : 27.255333 : 1"
       inkscape:vp_y="0 : 1000 : 0"
       inkscape:vp_z="46.522754 : 27.600613 : 1"
       inkscape:persp3d-origin="24.066292 : 19.579729 : 1"
       id="perspective3754" />
  </defs>
  <metadata
     id="metadata3691">
    <rdf:RDF>
      <cc:Work
         rdf:about="">
        <dc:format>image/svg+xml</dc:format>
        <dc:type
           rdf:resource="http://purl.org/dc/dcmitype/StillImage" />
        <dc:title></dc:title>
      </cc:Work>
    </rdf:RDF>
  </metadata>
  <g
     id="layer1"
     inkscape:groupmode="layer"
     inkscape:label="Layer 1"
     style="display:inline">
    <g
       inkscape:groupmode="layer"
       id="layer2"
       inkscape:label="Layer 2"
       style="display:inline">
      <rect
         style="display:inline;opacity:1;fill:#241c1c;fill-opacity:1;stroke:none;stroke-width:6.35716534;stroke-miterlimit:4;stroke-dasharray:none"
         id="rect3989"
         width="48"
         height="48"
         x="0"
         y="0" />
      <rect
         style="display:inline;opacity:1;fill:#099c7b;fill-opacity:1;stroke:none;stroke-width:6.37999821;stroke-miterlimit:4;stroke-dasharray:none"
         id="rect3979"
         width="48"
         height="48"
         x="0"
         y="0"
         ry="0.19887379" />
    </g>
    <g
       sodipodi:type="inkscape:box3d"
       id="g3786"
       inkscape:perspectiveID="#perspective3754"
       inkscape:corner0="361.039 : 0.060732645 : 0 : 1"
       inkscape:corner7="2.4154591 : -0.060650645 : 595.09423 : 1"
       style="opacity:1;fill:#008080;fill-opacity:1;stroke:none;stroke-width:6.35716534;stroke-miterlimit:4;stroke-dasharray:none">
      <path
         sodipodi:type="inkscape:box3dside"
         id="path3788"
         inkscape:box3dsidetype="6"
         d="m 2.2423828,20.598116 v 0.335277 L 29.773548,20.601377 v -0.12682 z"
         points="2.2423828,20.933393 29.773548,20.601377 29.773548,20.474557 2.2423828,20.598116 "
         style="fill:#353564;fill-rule:evenodd;stroke:none;stroke-linejoin:round" />
      <path
         sodipodi:type="inkscape:box3dside"
         id="path3796"
         inkscape:box3dsidetype="13"
         d="M 2.2423828,20.933393 8.5893775,40.749664 46.306283,20.515518 29.773548,20.601377 Z"
         points="8.5893775,40.749664 46.306283,20.515518 29.773548,20.601377 2.2423828,20.933393 "
         style="fill:#afafde;fill-rule:evenodd;stroke:none;stroke-linejoin:round" />
      <path
         sodipodi:type="inkscape:box3dside"
         id="path3798"
         inkscape:box3dsidetype="11"
         d="m 29.773548,20.474557 16.532735,-0.161848 v 0.202809 l -16.532735,0.08586 z"
         points="46.306283,20.312709 46.306283,20.515518 29.773548,20.601377 29.773548,20.474557 "
         style="fill:#e9e9ff;fill-rule:evenodd;stroke:none;stroke-linejoin:round" />
      <path
         sodipodi:type="inkscape:box3dside"
         id="path3790"
         inkscape:box3dsidetype="5"
         d="M 2.2423828,20.598116 8.5893775,5.2102866 46.306283,20.312709 29.773548,20.474557 Z"
         points="8.5893775,5.2102866 46.306283,20.312709 29.773548,20.474557 2.2423828,20.598116 "
         style="fill:#4d4d9f;fill-rule:evenodd;stroke:none;stroke-linejoin:round" />
      <path
         sodipodi:type="inkscape:box3dside"
         id="path3794"
         inkscape:box3dsidetype="14"
         d="M 8.5893775,5.2102866 V 40.749664 L 46.306283,20.515518 v -0.202809 z"
         points="8.5893775,40.749664 46.306283,20.515518 46.306283,20.312709 8.5893775,5.2102866 "
         style="fill:#d7d7ff;fill-rule:evenodd;stroke:none;stroke-linejoin:round" />
      <path
         sodipodi:type="inkscape:box3dside"
         id="path3792"
         inkscape:box3dsidetype="3"
         d="M 2.2423828,20.598116 8.5893775,5.2102866 V 40.749664 L 2.2423828,20.933393 Z"
         points="8.5893775,5.2102866 8.5893775,40.749664 2.2423828,20.933393 2.2423828,20.598116 "
         style="fill:#8686bf;fill-rule:evenodd;stroke:none;stroke-linejoin:round" />
    </g>
    <path
       style="opacity:1;fill:#008080;fill-opacity:1;stroke:none;stroke-width:6.35716534;stroke-miterlimit:4;stroke-dasharray:none"
       id="path3870"
       d="m 15.932019,15.077554 c 0.209579,0.120143 0.408021,0.259065 0.618596,0.377518 0.107436,0.06044 0.314076,0.186638 0.457407,0.173365 0.05956,-0.0055 0.106818,-0.05387 0.160227,-0.0808 -0.229756,0.10914 -0.439095,0.281456 -0.689268,0.327421 -0.07728,0.0142 0.07143,-0.141359 0.09089,-0.21748 0.02356,-0.09218 0.03505,-0.187894 0.03706,-0.283016 0.0079,-0.372631 -0.103652,-0.713259 -0.221182,-1.060624 -0.170456,-0.347854 -0.314146,-0.768317 -0.634304,-1.015624 -0.170771,-0.131913 -0.291686,-0.151703 -0.495646,-0.219807 -0.563035,-0.131174 -1.149831,-0.160832 -1.71299,-0.01164 -0.131545,0.03485 -0.259061,0.08344 -0.388591,0.125154 0.224733,-0.217535 -1.00097,0.514316 -0.773365,0.346915 0.137692,-0.101271 0.283628,-0.210956 0.451512,-0.243045 0.116943,-0.02235 -0.196874,0.1347 -0.287659,0.211727 -0.234793,0.199212 -0.273227,0.275986 -0.459867,0.518842 -0.304235,0.474507 -0.498405,1.020437 -0.514576,1.587825 -0.0031,0.110138 0.0083,0.220208 0.01251,0.330312 0.08159,0.592569 0.361786,1.077284 0.806852,1.474062 0.09941,0.08863 0.208883,0.165286 0.313324,0.247929 0.632856,0.465355 1.313956,0.875564 2.047283,1.162674 0.142213,0.05568 0.28825,0.101045 0.432375,0.151567 0.497823,0.137779 1.017806,0.279524 1.539914,0.211569 0.23616,-0.03074 0.396057,-0.09569 0.618508,-0.170153 0.216193,-0.07925 0.424174,-0.178108 0.638856,-0.261069 0.04348,-0.0168 0.230171,-0.08777 0.284286,-0.09373 0.05112,-0.0056 0.10275,0.0046 0.154125,0.0069 0.160122,0.07095 0.228352,0.08418 0.357652,0.218531 0.338788,0.352015 0.516951,0.873288 0.694,1.316424 0.28385,0.783397 0.435862,1.60245 0.523818,2.428411 0.06507,0.633845 0.03348,1.278259 -0.114341,1.899598 -0.03809,0.160094 -0.08973,0.316657 -0.134593,0.474986 -0.202655,0.623714 -0.418139,1.257651 -0.776294,1.812914 -0.223052,0.345806 -0.313664,0.415512 -0.595333,0.717393 -0.385986,0.363864 -0.83188,0.654734 -1.292496,0.914382 -0.649559,0.366154 -1.060078,0.630666 -1.689215,0.875032 -0.144256,0.05603 -0.292667,0.100714 -0.439001,0.15107 -0.687486,0.164486 -1.40152,0.253801 -2.108912,0.188366 -0.438495,-0.04056 -0.583169,-0.09812 -1.004873,-0.210776 -0.395594,-0.206536 -0.563019,-0.249082 -0.868993,-0.590479 -0.400604,-0.446982 -0.614574,-1.052364 -0.743518,-1.627378 -0.05139,-0.229156 -0.07804,-0.463165 -0.117067,-0.694747 -0.08584,-0.661504 -0.09932,-1.327237 -0.04319,-1.991485 0.02478,-0.293291 0.07708,-0.720779 0.155013,-1.011443 0.03721,-0.138792 0.09522,-0.271154 0.142836,-0.40673 0.151413,-0.299024 0.34844,-0.581879 0.644569,-0.755048 0.335715,-0.196317 0.835927,-0.634668 1.324744,-0.600496 0.08925,0.0062 0.174341,0.04031 0.261511,0.06047 0.08586,0.04486 0.176415,0.08169 0.257575,0.134577 0.39227,0.255624 0.651376,0.615628 0.871991,1.017726 0.192646,0.423826 0.332955,0.870523 0.462447,1.317235 0.07315,0.236709 0.135797,0.514409 0.349545,0.6652 0.02541,0.0097 0.05081,0.01943 0.07622,0.02915 0,0 -0.816027,0.539883 -0.816027,0.539883 v 0 c -0.02959,-0.01606 -0.05918,-0.03212 -0.08877,-0.04818 -0.213623,-0.186061 -0.29063,-0.461542 -0.362927,-0.727173 -0.123707,-0.441698 -0.253186,-0.88503 -0.445706,-1.302414 -0.204012,-0.377673 -0.457316,-0.746179 -0.835992,-0.971032 -0.07764,-0.0461 -0.164583,-0.07433 -0.246874,-0.111496 -0.0812,-0.01202 -0.161527,-0.03729 -0.243603,-0.03606 -0.330191,0.005 -0.674257,0.291634 0.312513,-0.313835 0.0845,-0.05185 -0.170682,0.102366 -0.247085,0.165538 -0.249275,0.206107 -0.260562,0.271684 -0.440629,0.548015 -0.05224,0.132764 -0.115402,0.261733 -0.15672,0.398291 -0.08586,0.283786 -0.151611,0.723211 -0.182055,1.010562 -0.06984,0.659156 -0.06594,1.321529 0.02101,1.979274 0.04109,0.226829 0.07091,0.455992 0.123274,0.680489 0.13033,0.558812 0.33637,1.142379 0.732978,1.573028 0.302818,0.328808 0.459091,0.361742 0.849359,0.554912 0.429329,0.10994 0.545059,0.158582 0.990728,0.19567 0.706185,0.05877 1.416477,-0.03632 2.097491,-0.221359 0.143622,-0.0511 0.28927,-0.09684 0.430866,-0.153311 0.150536,-0.06004 0.28357,-0.210927 0.444947,-0.195989 0.123616,0.01144 -0.423374,0.255749 -0.308524,0.208617 0.165997,-0.06812 0.312337,-0.176971 0.464218,-0.27251 0.450671,-0.283491 0.427336,-0.285058 0.826726,-0.614416 0.278007,-0.287195 0.379524,-0.366501 0.602903,-0.69725 0.367956,-0.544817 0.589402,-1.172785 0.789192,-1.793648 0.04269,-0.154319 0.0914,-0.307098 0.128066,-0.462958 0.144268,-0.613252 0.175323,-1.244632 0.1149,-1.870394 -0.07502,-0.820724 -0.208712,-1.636231 -0.498221,-2.412024 -0.171279,-0.414686 -0.432958,-1.15566 -0.871223,-1.366267 -0.05026,-0.02415 -0.107341,-0.03022 -0.161011,-0.04533 -0.04665,0.005 -0.09402,0.0053 -0.13994,0.01493 -0.05255,0.01098 -0.228018,0.07768 -0.271972,0.09469 -0.208934,0.08086 -0.413787,0.172266 -0.626812,0.242442 -0.24012,0.07078 -0.373913,0.122475 -0.628576,0.145101 -0.526232,0.04675 -1.045598,-0.104502 -1.544,-0.250725 -0.143794,-0.0532 -0.289431,-0.101654 -0.431382,-0.159588 -0.736995,-0.300786 -1.429975,-0.706348 -2.072362,-1.17443 -0.107495,-0.08499 -0.219814,-0.164222 -0.322486,-0.254985 -0.456699,-0.403726 -0.758213,-0.924795 -0.847583,-1.530059 -0.0062,-0.11374 -0.01989,-0.227319 -0.01853,-0.341219 0.0069,-0.580363 0.19914,-1.142611 0.495787,-1.635966 0.1736,-0.241797 0.227246,-0.344635 0.451042,-0.544363 0.09097,-0.08119 0.187595,-0.157034 0.291026,-0.221604 0.62068,-0.387482 1.223505,-0.763565 1.913094,-1.002377 0.133711,-0.04045 0.265374,-0.08843 0.401133,-0.121359 0.577824,-0.140171 1.17886,-0.09532 1.751432,0.04429 0.226416,0.08189 0.340082,0.09974 0.526588,0.253341 0.322418,0.265532 0.457424,0.702594 0.636036,1.06153 0.152321,0.443492 0.310803,0.911914 0.232797,1.38853 -0.01383,0.08452 -0.0046,0.191415 -0.06945,0.247372 -0.28941,0.249768 -0.636178,0.424082 -0.954267,0.636123 -0.06242,0.01069 -0.124203,0.03787 -0.187267,0.03206 -0.144367,-0.0133 -0.347062,-0.13673 -0.462283,-0.20132 -0.211282,-0.118441 -0.415017,-0.252936 -0.639899,-0.345558 0,0 0.813719,-0.545146 0.813719,-0.545146 z"
       inkscape:connector-curvature="0" />
    <path
       style="opacity:1;fill:#008080;fill-opacity:1;stroke:none;stroke-width:6.35716534;stroke-miterlimit:4;stroke-dasharray:none"
       id="path3872"
       d="m 21.258042,20.241094 c 0.128418,-0.166505 0.296276,-0.292199 0.466856,-0.411707 0,0 0.899758,-0.352119 0.899758,-0.352119 v 0 c -0.16812,0.106857 -0.330397,0.220193 -0.464777,0.369242 0,0 -0.901837,0.394584 -0.901837,0.394584 z"
       inkscape:connector-curvature="0" />
    <path
       style="opacity:1;fill:#008080;fill-opacity:1;stroke:none;stroke-width:6.35716534;stroke-miterlimit:4;stroke-dasharray:none"
       id="path3874"
       d="m 25.186047,20.698467 c 0.139568,0.559556 0.206959,1.134136 0.239802,1.708919 0.0143,0.497076 -0.09961,0.978689 -0.337687,1.415448 -0.04561,0.08368 -0.0996,0.162517 -0.149407,0.243775 -0.279291,0.417456 -0.622022,0.78942 -1.035662,1.075083 -0.330921,0.184396 -0.655512,0.380643 -0.992763,0.553189 -0.08568,0.04384 -0.32498,0.07137 -0.409648,0.08 -0.277829,0.02829 -0.544746,0.01963 -0.822376,-0.003 -0.09596,-0.02857 -0.196576,-0.04463 -0.287891,-0.0857 -0.693822,-0.312063 -0.936134,-1.099119 -1.153157,-1.760932 -0.134382,-0.47614 -0.219164,-0.964034 -0.280805,-1.45433 -0.03573,-0.284208 -0.05942,-0.498215 -0.05642,-0.783194 0.0012,-0.116068 0.01338,-0.231764 0.02007,-0.347646 0.05828,-0.473403 0.223435,-0.944083 0.498798,-1.337391 0.04343,-0.06204 0.09513,-0.117852 0.142703,-0.176779 0.05884,-0.0549 0.113398,-0.114786 0.176535,-0.164685 0.06613,-0.05227 0.136909,-0.09889 0.210029,-0.140829 0.235298,-0.134944 0.826766,-0.527464 1.24383,-0.649113 0.166234,-0.04849 0.288027,-0.05928 0.459351,-0.08351 0.374019,-0.02621 0.759574,-0.01616 1.107713,0.138692 0.0646,0.02874 0.125436,0.0653 0.188154,0.09794 0.250006,0.160085 0.508292,0.330811 0.697209,0.564494 0.120125,0.14859 0.174389,0.265146 0.265658,0.431541 0.222327,0.488295 0.264827,1.02577 0.299456,1.55391 0.02645,0.455038 0.158787,0.889123 0.291067,1.321939 0.08732,0.288766 0.184697,0.580708 0.359036,0.8306 0.08917,0.127811 0.127868,0.155091 0.236066,0.258086 0.344872,0.247276 0.689857,0.494316 1.034843,0.741459 0.179505,0.123173 0.356035,0.260866 0.560175,0.342718 0.236022,0.09464 0.489027,0.116058 0.738811,0.144469 0.66003,0.0042 1.294802,-0.210892 1.897316,-0.46239 0,0 -0.749681,0.589657 -0.749681,0.589657 v 0 c -0.61266,0.235805 -1.252983,0.434484 -1.916544,0.417982 -0.2176,-0.0255 -0.346627,-0.03161 -0.554792,-0.08839 -0.292783,-0.07987 -0.536283,-0.256723 -0.777124,-0.43432 -0.35091,-0.250365 -0.711769,-0.487204 -1.055885,-0.746723 -0.325744,-0.338915 -0.481778,-0.68541 -0.606329,-1.136522 -0.134214,-0.439935 -0.28534,-0.877229 -0.302883,-1.341511 -0.02444,-0.51564 -0.06166,-1.040503 -0.278046,-1.517269 -0.08836,-0.160637 -0.136493,-0.266862 -0.254694,-0.408216 -0.18647,-0.222996 -0.438847,-0.385304 -0.684052,-0.534784 -0.06094,-0.02905 -0.120249,-0.06182 -0.182829,-0.08715 -0.341087,-0.138076 -0.71395,-0.143106 -1.074721,-0.103977 -0.193245,0.0341 -0.264646,0.03921 -0.449876,0.100929 -0.06832,0.02276 -0.259294,0.121616 -0.200862,0.07953 0.18887,-0.136032 0.398493,-0.240679 0.595875,-0.364035 0.07008,-0.0438 -0.146376,0.07771 -0.213919,0.125327 -0.06404,0.04515 -0.11958,0.101302 -0.179369,0.151952 -0.05019,0.05503 -0.105045,0.106127 -0.150562,0.165073 -0.289553,0.374978 -0.462232,0.839832 -0.535332,1.303137 -0.0095,0.114093 -0.0245,0.227859 -0.02843,0.342277 -0.0094,0.27502 0.0096,0.50646 0.0386,0.780985 0.05155,0.487244 0.130362,0.97204 0.263572,1.444251 0.05428,0.162358 0.09955,0.32801 0.162831,0.487073 0.190413,0.478596 0.471412,0.976797 0.976141,1.175949 0.08899,0.03511 0.185631,0.04632 0.278447,0.06949 0.276014,0.01579 0.54302,0.0201 0.817597,-0.02105 0.07418,-0.01112 0.148184,-0.02467 0.220725,-0.04373 0.0607,-0.01595 0.2295,-0.09709 0.178091,-0.06109 -0.208431,0.145952 -0.435817,0.262766 -0.653726,0.394149 0.05699,-0.03469 0.116432,-0.06565 0.170977,-0.104078 0.354763,-0.249934 0.640829,-0.591065 0.893991,-0.938834 0.05152,-0.07849 0.107305,-0.154337 0.154573,-0.235458 0.244544,-0.419681 0.365855,-0.888168 0.362179,-1.373391 -0.02748,-0.564341 -0.08424,-1.133827 -0.260122,-1.67372 0,0 0.855377,-0.466261 0.855377,-0.466261 z"
       inkscape:connector-curvature="0" />
    <path
       style="opacity:1;fill:#008080;fill-opacity:1;stroke:none;stroke-width:6.35716534;stroke-miterlimit:4;stroke-dasharray:none"
       d="m 27.638966,19.287996 c 0.07283,0.109902 0.136117,0.226762 0.218491,0.329704 0.24369,0.304538 0.662767,0.717698 0.939327,0.974396 0.546645,0.507385 1.136235,0.964362 1.719131,1.428476 0.893723,0.665462 1.770264,1.351937 2.634295,2.055249 0.140721,0.109903 0.299419,0.238776 0.449552,0.33963 0.05329,0.0358 0.103768,0.07937 0.164501,0.100193 0.04498,0.01542 0.182226,-0.02113 0.142552,0.0051 -0.918732,0.606876 -0.841524,0.550307 -0.60586,0.211635 0.0287,-0.09508 0.06474,-0.188252 0.08609,-0.285249 0.0566,-0.257104 0.08678,-0.602168 0.104921,-0.858702 0.03721,-0.526014 0.0425,-1.05098 0.03961,-1.577946 -0.03627,-0.530146 -0.02598,-1.091442 -0.228855,-1.59222 -0.03533,-0.05564 -0.05537,-0.116729 -0.132413,-0.127792 -0.047,-0.0067 -0.09522,0.0036 -0.141912,0.0122 -0.344881,0.0637 -0.633168,0.231573 -0.93897,0.395463 0.0845,-0.04618 0.332139,-0.194108 0.253501,-0.138531 -0.204649,0.144637 -0.423529,0.26807 -0.6325,0.40639 -0.244453,0.161806 -0.486354,0.327456 -0.727662,0.493916 -0.774049,0.533961 -1.542932,1.075663 -2.316038,1.611037 -0.5994,0.41586 -1.1898,0.844412 -1.782462,1.26975 0,0 -0.826946,0.326354 -0.826946,0.326354 v 0 c 0.61181,-0.429662 1.220422,-0.863823 1.833872,-1.291155 0.464423,-0.320421 1.086105,-0.748167 1.54654,-1.070643 1.094854,-0.766804 2.174374,-1.559714 3.363858,-2.179266 0.276876,-0.143493 0.849569,-0.490528 1.190716,-0.360301 0.0939,0.03585 0.11455,0.103385 0.15794,0.181207 0.188171,0.525947 0.164201,1.101842 0.189228,1.651838 -0.002,0.614947 0.0024,0.408771 -0.01533,1.041392 -0.01303,0.465946 -0.01706,0.938455 -0.08767,1.400481 -0.0154,0.100767 -0.04155,0.199595 -0.06233,0.299392 -0.02813,0.06982 -0.02262,0.166442 -0.0844,0.209445 -0.261207,0.181828 -0.730981,0.678681 -1.133741,0.485113 -0.20339,-0.09775 -0.408991,-0.341777 -0.590756,-0.468265 -0.836702,-0.725428 -1.701753,-1.414794 -2.583909,-2.084369 -0.938328,-0.75681 -1.888865,-1.512478 -2.716615,-2.393173 -0.09892,-0.105245 -0.187609,-0.219651 -0.281414,-0.329476 0,0 0.855662,-0.471251 0.855662,-0.471251 z"
       inkscape:connector-curvature="0"
       id="path3876" />
    <path
       style="opacity:1;fill:#008080;fill-opacity:1;stroke:none;stroke-width:6.35716534;stroke-miterlimit:4;stroke-dasharray:none"
       d="m 37.734136,20.526873 c -0.214044,0.01094 -0.424597,0.04633 -0.636041,0.07871 -0.201246,0.02547 -0.404226,0.03492 -0.606942,0.03718 -0.226178,-0.0094 -0.449818,0.012 -0.674451,0.03448 -0.200962,0.01907 -0.400639,0.02144 -0.598352,0.06414 -0.09817,0.03107 -0.119968,0.03421 -0.213027,0.07861 -0.03319,0.01584 -0.129318,0.07011 -0.09731,0.05199 1.336449,-0.75669 0.857572,-0.565172 0.638338,-0.314259 -0.07717,0.138465 0.101308,0.218124 0.19856,0.281295 0.188009,0.109223 0.397998,0.161752 0.599843,0.236865 0.160724,0.09434 0.321152,0.184845 0.503116,0.229291 0.134532,0.02589 0.272121,0.02456 0.408538,0.02455 0.15636,0.01491 0.299483,0.05984 0.444626,0.116672 0.172495,0.08709 0.357411,0.14336 0.534069,0.220359 0.193131,0.08501 0.338886,0.220645 0.433771,0.407673 0.08374,0.166366 0.126452,0.344084 0.132391,0.529341 -0.0093,0.21235 -0.130372,0.387906 -0.254139,0.551882 -0.129935,0.154285 -0.294387,0.273647 -0.463963,0.380511 -0.469879,0.34936 -0.916555,0.548655 -1.443087,0.717332 -0.194026,0.06191 -0.398772,0.07515 -0.58705,0.154328 -0.166765,0.08081 -0.344306,0.117143 -0.526904,0.137262 -0.193807,0.01661 -0.389037,0.01042 -0.583432,0.01078 -0.229688,0.01486 -0.438236,-0.05215 -0.634183,-0.165791 -0.195838,-0.126848 -0.229982,-0.344741 -0.258639,-0.55927 -0.02124,-0.174985 0.03397,-0.315403 0.155256,-0.437864 0.296243,-0.293361 0.673682,-0.435305 1.052,-0.640416 0.01918,-0.0104 0.04328,-0.0071 0.06384,-0.01438 0.0232,-0.0082 0.04443,-0.02116 0.06664,-0.03173 0.155114,-0.07838 0.326239,-0.09016 0.493858,-0.119392 0.224751,-0.0364 0.45212,-0.05041 0.679314,-0.06027 0,0 -0.787285,0.577487 -0.787285,0.577487 v 0 c -0.225204,0.01075 -0.450286,0.0288 -0.672255,0.07002 -0.167172,0.02783 -0.330588,0.06472 -0.484145,0.139508 -0.340929,0.121687 -0.610612,0.337867 0.65549,-0.407277 0.07521,-0.04426 -0.223172,0.108028 -0.158891,0.111431 -0.120059,0.113109 -0.209542,0.173907 -0.199933,0.359518 0.01998,0.185255 0.03764,0.375328 0.213128,0.479038 0.189979,0.09965 0.389138,0.140705 0.604552,0.126133 0.193314,-2.54e-4 0.387475,0.0011 0.579557,-0.02381 0.177664,-0.02792 0.346405,-0.08204 0.512133,-0.151948 0.194003,-0.05812 0.39567,-0.08503 0.587421,-0.15159 0.377263,-0.128262 1.250715,-0.538532 -0.238344,0.232212 0.171332,-0.09713 0.333303,-0.209539 0.474983,-0.347239 0.121989,-0.144391 0.251101,-0.300373 0.282492,-0.49194 0.0048,-0.170947 -0.03605,-0.335797 -0.111153,-0.489614 -0.08349,-0.169299 -0.221738,-0.278479 -0.395995,-0.349676 -0.178283,-0.07237 -0.359335,-0.137736 -0.535437,-0.215588 -0.13728,-0.0514 -0.279268,-0.08249 -0.42642,-0.08689 -0.141894,-0.0031 -0.285204,-0.0068 -0.422473,-0.04701 -0.177733,-0.05831 -0.335016,-0.155231 -0.501747,-0.238173 -0.209571,-0.07351 -0.422647,-0.137978 -0.613626,-0.25532 -0.148982,-0.09945 -0.319114,-0.211533 -0.275578,-0.415118 0.02939,-0.05582 0.04627,-0.104572 0.103969,-0.140559 0.406012,-0.25323 0.779848,-0.548545 1.244857,-0.656693 0.199769,-0.03326 0.401989,-0.03566 0.603284,-0.05662 0.22665,-0.02102 0.453007,-0.03272 0.680763,-0.03021 0.200195,-0.0068 0.400767,-0.01511 0.598908,-0.04678 0.214035,-0.03213 0.428733,-0.05581 0.643348,-0.08313 0,0 -0.788246,0.589963 -0.788246,0.589963 z"
       inkscape:connector-curvature="0"
       id="path3924" />
    <path
       style="opacity:1;fill:#000000;fill-opacity:1;stroke:none;stroke-width:6.35716534;stroke-miterlimit:4;stroke-dasharray:none"
       id="path3958"
       d="m 29.472988,33.239237 c -0.276181,-0.012 -0.546408,-0.01435 -0.814013,0.07434 -0.173884,0.05763 -0.332648,0.154968 -0.505551,0.215476 -0.07146,0.02501 0.258558,-0.155871 0.199582,-0.108401 -0.166582,0.134079 -0.349504,0.246484 -0.524256,0.369727 -0.358807,0.311207 -1.068223,0.84859 -1.003007,1.410592 0.03494,0.301107 0.215704,0.379208 0.427784,0.568644 0.803279,0.486669 1.71757,0.730651 2.585125,1.071929 0.673208,0.264827 0.642376,0.264458 1.264318,0.568919 0.314078,0.192163 0.566998,0.300921 0.792174,0.597984 0.0805,0.106205 0.14857,0.227034 0.181749,0.356107 0.07128,0.277305 0.01,0.684003 -0.10598,0.934415 -0.09402,0.203048 -0.242709,0.37599 -0.364063,0.563985 -0.213307,0.194496 -0.399579,0.423598 -0.639921,0.583486 -0.526318,0.350136 -1.076329,0.668536 -1.647922,0.938512 -0.393719,0.185962 -0.817017,0.303996 -1.235724,0.423497 -0.947618,0.270453 -1.861135,0.428802 -2.835155,0.563622 -0.412745,0.05713 -0.828148,0.09305 -1.242222,0.139577 -0.5604,0.03486 -1.076719,0.08317 -1.632429,0.07181 -0.08501,-0.0017 -0.169107,-0.01784 -0.253661,-0.02675 0,0 0.782023,-0.547662 0.782023,-0.547662 v 0 c 0.06449,0.01725 0.127075,0.04474 0.19346,0.05176 0.551802,0.05834 0.953841,0.01121 1.535636,-0.01353 0.404554,-0.04111 0.810618,-0.06939 1.213661,-0.123338 0.992138,-0.132802 1.879072,-0.293533 2.840388,-0.584736 0.428284,-0.129736 0.843082,-0.300639 1.261071,-0.460464 0.0817,-0.03124 0.16798,-0.05881 0.237112,-0.112394 0.217808,-0.168826 0.411555,-0.366598 0.617332,-0.549897 0.117279,-0.175547 0.260249,-0.336424 0.351835,-0.526643 0.106762,-0.221738 0.175812,-0.614739 0.118558,-0.867002 -0.103432,-0.455724 -0.543442,-0.706082 -0.904594,-0.9276 -0.600147,-0.306067 -0.583444,-0.314533 -1.239724,-0.573992 -0.885882,-0.350231 -1.822901,-0.586096 -2.652153,-1.067536 -0.248926,-0.217966 -0.438439,-0.292459 -0.486957,-0.638828 -0.08481,-0.605424 0.634604,-1.161067 1.020941,-1.500432 0.777678,-0.56258 0.710062,-0.541385 1.848077,-1.139763 0.172369,-0.09063 0.355491,-0.16151 0.541296,-0.219835 0.282788,-0.08877 0.574792,-0.08371 0.866224,-0.09028 0,0 -0.791014,0.574706 -0.791014,0.574706 z"
       inkscape:connector-curvature="0" />
    <path
       style="opacity:1;fill:#000000;fill-opacity:1;stroke:none;stroke-width:6.35716534;stroke-miterlimit:4;stroke-dasharray:none"
       id="path3960"
       d="m 35.07802,32.457379 c -0.283508,1.659046 -0.558736,3.329754 -0.485442,5.019811 0.01844,0.425228 0.07686,0.847779 0.115286,1.271668 0.217811,1.366205 0.618399,2.60739 1.508954,3.686775 0.338065,0.409745 0.469933,0.486573 0.858274,0.797484 0.402208,0.210794 0.207902,0.13894 0.574018,0.238254 0,0 -0.785413,0.533306 -0.785413,0.533306 v 0 c -0.357276,-0.138904 -0.168832,-0.04777 -0.555591,-0.292701 -0.369982,-0.330203 -0.505394,-0.423583 -0.826285,-0.843301 -0.85572,-1.119263 -1.250603,-2.383401 -1.457413,-3.763848 -0.03781,-0.426747 -0.09361,-0.85228 -0.113417,-1.28024 -0.04407,-0.952399 -0.0015,-1.627064 0.07605,-2.572019 0.08575,-1.045398 0.108762,-0.946087 0.195886,-1.8912 0.01467,-0.159117 0.02142,-0.318864 0.03213,-0.478297 0,0 0.862958,-0.425692 0.862958,-0.425692 z"
       inkscape:connector-curvature="0" />
    <path
       style="opacity:1;fill:#000000;fill-opacity:1;stroke:none;stroke-width:6.35716534;stroke-miterlimit:4;stroke-dasharray:none"
       id="path3962"
       d="m 39.196369,33.720506 c -0.153086,2.431297 -0.14362,4.869517 -0.141246,7.304568 -1.178852,-0.100401 0.406086,0.999153 0.0631,1.216447 -0.222094,0.140703 -0.60975,0.345768 -0.775855,0.141973 -0.180973,-0.222036 0.144486,-0.554389 0.213023,-0.832514 1.181151,-4.793109 -0.685896,2.697812 0.612257,-2.498416 0.220952,-0.820407 0.398256,-1.524232 0.658791,-2.327513 0.09428,-0.290698 0.188841,-0.582081 0.307488,-0.863714 0.09845,-0.233687 0.284541,-0.724526 0.605315,-0.829828 0.367257,-0.120561 0.757284,-0.155479 1.135926,-0.233218 0.08813,0.202558 0.198193,0.396926 0.264383,0.607675 0.29241,0.931033 0.337308,1.932883 0.381987,2.89942 0.05832,1.261556 -0.01846,0.413787 0.07465,1.308262 0.300783,-0.500873 -0.375658,0.711328 -0.484255,-0.187322 -0.04283,-0.354388 0.287386,-0.653542 0.43339,-0.979283 0.176612,-0.39403 0.846486,-1.874824 1.042333,-2.270073 0.14911,-0.300927 0.316087,-0.592666 0.47413,-0.888999 0.490856,-0.504239 0.760792,-0.926144 1.677418,-0.852189 0.219658,0.01772 0.303061,0.327475 0.403785,0.523481 0.13971,0.271874 0.223246,0.569993 0.308912,0.863414 0.19537,0.669179 0.297426,1.336772 0.420854,2.020793 0.114399,0.729129 0.191157,1.464004 0.207435,2.202072 0.0048,0.216637 0.0039,0.535403 -0.02083,0.760705 -0.0097,0.08831 -0.02958,0.175201 -0.04437,0.262802 -0.06319,0.260566 -0.03025,0.138317 -0.09685,0.367263 0,0 -0.872822,0.411347 -0.872822,0.411347 v 0 c 0.07879,-0.227695 0.03927,-0.106302 0.116866,-0.364732 0.01939,-0.08631 0.04351,-0.171694 0.05818,-0.25893 0.04091,-0.243198 0.05832,-0.529838 0.06497,-0.771786 0.02046,-0.744391 -0.02915,-1.488124 -0.13299,-2.22549 -0.127928,-0.723945 -0.202538,-1.294483 -0.431997,-1.996831 -0.09135,-0.279613 -0.189714,-0.560863 -0.336403,-0.815835 -0.09862,-0.171419 -0.376813,-0.249675 -0.390117,-0.44699 -0.01292,-0.191634 0.519675,-0.460885 0.328035,-0.473717 -0.229984,-0.0154 -0.343498,0.307454 -0.515247,0.461181 -0.606942,1.069711 -0.491656,0.81195 -1.034283,2.018445 -0.168853,0.375435 -0.333403,0.752911 -0.48932,1.133901 -0.507989,1.241295 -0.164357,0.93315 -1.382387,1.982371 -0.03226,0.02779 -0.07554,-0.03932 -0.113313,-0.05898 0.01,-0.783527 0.02792,-1.567487 -0.04736,-2.349129 -0.06014,-0.624418 -0.151154,-1.247528 -0.369372,-1.839632 -0.06969,-0.189108 -0.184204,-0.358532 -0.276306,-0.537798 0.168372,-0.203481 0.413695,-0.362661 0.505115,-0.610442 0.04864,-0.131839 -0.268275,0.112515 -0.360518,0.218527 -0.287953,0.330938 -0.564909,1.111416 -0.692309,1.473202 -0.313468,0.890174 -0.438569,1.412681 -0.693555,2.338695 -0.102019,0.432247 -0.211894,0.862714 -0.306056,1.296741 -0.08358,0.385237 -0.157041,0.772663 -0.227063,1.160593 -0.153821,0.85218 0.04281,1.081962 -1.033859,1.485321 -0.404838,0.151667 1.242636,-2.320311 0.0861,-1.294085 0.0481,-2.407362 0.04954,-4.816151 -0.02358,-7.223094 0,0 0.847822,-0.428656 0.847822,-0.428656 z"
       inkscape:connector-curvature="0" />
    <path
       style="opacity:1;fill:#000000;fill-opacity:1;stroke:none;stroke-width:6.35716534;stroke-miterlimit:4;stroke-dasharray:none"
       id="path3964"
       d="m 35.331284,30.331715 c 0.06812,0.05077 0.142913,0.09137 0.21516,0.13582 0,0 -0.821699,0.531035 -0.821699,0.531035 v 0 c -0.07456,-0.04468 -0.149683,-0.0885 -0.222468,-0.136051 0,0 0.829007,-0.530804 0.829007,-0.530804 z"
       inkscape:connector-curvature="0" />
    <path
       style="opacity:1;fill:#000000;fill-opacity:1;stroke:none;stroke-width:6.35716534;stroke-miterlimit:4;stroke-dasharray:none"
       id="path3966"
       d="m 35.529345,30.55871 c 0.09599,0.125954 0.186498,0.254074 0.292191,0.372364 0,0 -0.833008,0.502856 -0.833008,0.502856 v 0 c -0.103654,-0.120925 -0.195397,-0.251051 -0.302423,-0.36894 0,0 0.84324,-0.50628 0.84324,-0.50628 z"
       inkscape:connector-curvature="0" />
  </g>
</svg>
